<svg width="46" height="46" viewBox="0 0 46 46" fill="none" xmlns="http://www.w3.org/2000/svg">
<path d="M31.6215 16.2043C31.622 16.0993 31.6017 15.9953 31.5619 15.8981C31.5222 15.8009 31.4636 15.7125 31.3897 15.638C31.3158 15.5634 31.2279 15.5041 31.131 15.4635C31.0342 15.423 30.9303 15.4018 30.8253 15.4014C30.6132 15.4005 30.4095 15.4839 30.2589 15.6332C30.1844 15.7071 30.1251 15.795 30.0845 15.8919C30.0439 15.9887 30.0228 16.0926 30.0224 16.1976L29.9784 29.5516L15.1216 13.1701C14.9792 13.013 14.7802 12.919 14.5684 12.9087C14.3566 12.8983 14.1494 12.9725 13.9924 13.115C13.8353 13.2574 13.7413 13.4564 13.7309 13.6682C13.7206 13.88 13.7948 14.0872 13.9372 14.2443L28.7908 30.6223L15.5027 29.3658C15.3982 29.3558 15.2927 29.3666 15.1923 29.3974C15.0919 29.4283 14.9986 29.4786 14.9177 29.5454C14.8367 29.6123 14.7697 29.6945 14.7206 29.7873C14.6714 29.8801 14.6409 29.9816 14.631 30.0862C14.6211 30.1907 14.6318 30.2962 14.6627 30.3966C14.6935 30.497 14.7438 30.5903 14.8107 30.6712C14.8776 30.7522 14.9598 30.8191 15.0525 30.8683C15.1453 30.9175 15.2469 30.9479 15.3514 30.9579L30.2587 32.367C30.4456 32.3846 30.634 32.358 30.8088 32.2895C30.9836 32.2209 31.1399 32.1123 31.265 31.9724C31.461 31.7536 31.5699 31.4705 31.571 31.1768L31.6215 16.2043Z" fill="#222222"/>
</svg>
